<svg xmlns="http://www.w3.org/2000/svg" width="50" height="50" fill="none"><path stroke="#959595" stroke-linecap="round" stroke-linejoin="round" stroke-width="4" d="M12.03 14.539 22.063 34.6m-10.031 0L22.06 14.54M47.14 12.03v25.077a10.03 10.03 0 0 1-10.031 10.03H12.031A10.03 10.03 0 0 1 2 37.109V12.031A10.03 10.03 0 0 1 12.03 2h25.078a10.03 10.03 0 0 1 10.03 10.03Z"/><path stroke="#959595" stroke-linecap="round" stroke-linejoin="round" stroke-width="4" d="M37.108 24.57v8.526a1.505 1.505 0 0 1-1.505 1.504h-3.51a5.015 5.015 0 1 1 0-10.03h5.015Zm0 0v-7.524"/></svg>