<svg xmlns="http://www.w3.org/2000/svg" width="61" height="61" fill="none"><path stroke="#959595" stroke-linecap="round" stroke-linejoin="round" stroke-width="4" d="M52.662 17.554v25.077a10.031 10.031 0 0 1-10.03 10.031H17.553a10.031 10.031 0 0 1-10.03-10.03V17.553a10.031 10.031 0 0 1 10.03-10.03h25.077a10.031 10.031 0 0 1 10.031 10.03Z"/><path stroke="#959595" stroke-linecap="round" stroke-linejoin="round" stroke-width="4" d="M17.554 40.123v-10.03m0 0V20.062h5.015a5.015 5.015 0 1 1 0 10.03h-5.015Zm25.077-2.508a4.535 4.535 0 0 0-4.057-2.508h-.958a3.762 3.762 0 0 0 0 7.523h1.254a3.762 3.762 0 0 1 0 7.523h-.958a4.538 4.538 0 0 1-4.058-2.507"/></svg>