<svg xmlns="http://www.w3.org/2000/svg" width="59" height="56" fill="none"><path fill="#FD6F00" fill-rule="evenodd" d="M22.143 34.875c9.506 0 22.144 1.07 22.144 10.33 0 9.755-14.726 10.34-21.043 10.376h-2.293C14.216 55.546 0 54.964 0 45.264c0-9.766 14.726-10.352 21.043-10.387l.759-.002h.341Zm0 4.375c-8.105 0-17.768 1.04-17.768 6.014 0 3.943 5.98 5.944 17.768 5.944 11.79 0 17.769-2.021 17.769-6.003 0-3.952-5.98-5.955-17.769-5.955Zm26.585-5.738c7.892 1.181 9.546 4.836 9.546 7.691 0 2.127-.919 5.005-5.302 6.665a2.184 2.184 0 0 1-2.82-1.269 2.186 2.186 0 0 1 1.268-2.82c2.48-.94 2.48-2.086 2.48-2.576 0-1.653-1.958-2.785-5.817-3.36a2.193 2.193 0 0 1-1.843-2.488c.18-1.195 1.315-1.997 2.488-1.843ZM22.143 0C30.4 0 37.121 6.72 37.121 14.977a14.81 14.81 0 0 1-4.338 10.564 14.82 14.82 0 0 1-10.54 4.413h-.1c-8.26 0-14.98-6.72-14.98-14.977C7.163 6.72 13.883 0 22.143 0Zm20.672 3.278c5.732.939 9.89 5.842 9.89 11.655-.01 5.848-4.377 10.87-10.158 11.681a2.19 2.19 0 0 1-2.47-1.864 2.188 2.188 0 0 1 1.86-2.47c3.64-.51 6.388-3.67 6.394-7.35a7.401 7.401 0 0 0-6.221-7.333 2.19 2.19 0 0 1-1.806-2.514 2.193 2.193 0 0 1 2.511-1.805ZM22.143 4.375c-5.848 0-10.605 4.757-10.605 10.602 0 5.845 4.757 10.602 10.605 10.602h.09a10.481 10.481 0 0 0 7.447-3.12 10.463 10.463 0 0 0 3.066-7.473c0-5.854-4.758-10.611-10.603-10.611Z" clip-rule="evenodd"/></svg>