<svg xmlns="http://www.w3.org/2000/svg" width="37" height="53" fill="none"><path fill="#959595" fill-rule="evenodd" d="M20.062 34.163a10.03 10.03 0 0 0 15.535-11.671 10.029 10.029 0 0 0-3.415-4.311 10.02 10.02 0 0 0 4.183-8.15A10.03 10.03 0 0 0 26.334 0h-16.3a10.03 10.03 0 0 0-5.85 18.18 10.032 10.032 0 0 0 0 16.301 10.031 10.031 0 1 0 15.878 8.15v-8.468ZM10.032 3.762a6.27 6.27 0 1 0 0 12.538H16.3V3.762h-6.269Zm6.268 32.6h-6.269a6.27 6.27 0 1 0 6.27 6.27v-6.27Zm-6.269-16.3a6.269 6.269 0 1 0 0 12.538h6.27V20.062h-6.27Zm10.031 6.269a6.27 6.27 0 1 0 12.542 0 6.27 6.27 0 0 0-12.542 0Zm6.27-10.03a6.27 6.27 0 0 0 0-12.54h-6.27v12.54h6.27Z" clip-rule="evenodd"/></svg>