<svg xmlns="http://www.w3.org/2000/svg" width="77" height="22" fill="none"><path fill="url(#a)" d="M2.1 21.27c-.58 0-1.08-.21-1.5-.63a2.1 2.1 0 0 1-.6-1.5V2.97c0-1 .33-1.74.99-2.22C1.65.25 2.66 0 4.02 0v17.79h8.1c.94 0 1.65.3 2.13.9.48.58.72 1.44.72 2.58H2.1Zm22.695.27c-1.64 0-3.14-.32-4.5-.96-1.36-.66-2.44-1.55-3.24-2.67-.78-1.12-1.17-2.34-1.17-3.66V7.26c0-1.32.39-2.53 1.17-3.63.8-1.12 1.88-2 3.24-2.64 1.36-.66 2.86-.99 4.5-.99 1.64 0 3.14.33 4.5.99 1.38.64 2.46 1.52 3.24 2.64.8 1.1 1.2 2.31 1.2 3.63v6.99c0 1.32-.4 2.54-1.2 3.66-.78 1.12-1.86 2.01-3.24 2.67-1.36.64-2.86.96-4.5.96Zm0-3.51c1.5 0 2.7-.35 3.6-1.05.9-.72 1.35-1.65 1.35-2.79V7.35c0-1.16-.45-2.09-1.35-2.79-.9-.72-2.1-1.08-3.6-1.08-1.48 0-2.67.36-3.57 1.08-.9.7-1.35 1.63-1.35 2.79v6.84c0 1.14.45 2.07 1.35 2.79.9.7 2.09 1.05 3.57 1.05Zm21.387 3.51c-1.78 0-3.37-.34-4.77-1.02-1.38-.68-2.46-1.63-3.24-2.85-.78-1.22-1.17-2.61-1.17-4.17V7.98c0-1.56.38-2.94 1.14-4.14.78-1.22 1.85-2.16 3.21-2.82C42.712.34 44.272 0 46.032 0c1.76 0 3.32.27 4.68.81 1.38.52 2.45 1.25 3.21 2.19.76.94 1.14 2.02 1.14 3.24 0 .74-.25 1.32-.75 1.74-.48.42-1.13.63-1.95.63-.4 0-.84-.06-1.32-.18.04-.48.06-.95.06-1.41 0-1.06-.47-1.92-1.41-2.58-.94-.66-2.16-.99-3.66-.99-1.48 0-2.69.42-3.63 1.26-.92.84-1.38 1.93-1.38 3.27v5.52c0 1.34.48 2.44 1.44 3.3.96.86 2.2 1.29 3.72 1.29 1.48 0 2.68-.34 3.6-1.02.94-.7 1.41-1.6 1.41-2.7v-.93h-2.58c-.76 0-1.38-.29-1.86-.87-.48-.6-.72-1.37-.72-2.31h7.29c.56 0 1.01.17 1.35.51.34.34.51.79.51 1.35v2.34c0 1.38-.38 2.61-1.14 3.69-.76 1.06-1.83 1.89-3.21 2.49-1.36.6-2.91.9-4.65.9Zm21.136 0c-1.64 0-3.14-.32-4.5-.96-1.36-.66-2.44-1.55-3.24-2.67-.78-1.12-1.17-2.34-1.17-3.66V7.26c0-1.32.39-2.53 1.17-3.63.8-1.12 1.88-2 3.24-2.64 1.36-.66 2.86-.99 4.5-.99 1.64 0 3.14.33 4.5.99 1.38.64 2.46 1.52 3.24 2.64.8 1.1 1.2 2.31 1.2 3.63v6.99c0 1.32-.4 2.54-1.2 3.66-.78 1.12-1.86 2.01-3.24 2.67-1.36.64-2.86.96-4.5.96Zm0-3.51c1.5 0 2.7-.35 3.6-1.05.9-.72 1.35-1.65 1.35-2.79V7.35c0-1.16-.45-2.09-1.35-2.79-.9-.72-2.1-1.08-3.6-1.08-1.48 0-2.67.36-3.57 1.08-.9.7-1.35 1.63-1.35 2.79v6.84c0 1.14.45 2.07 1.35 2.79.9.7 2.09 1.05 3.57 1.05Z"/><defs><linearGradient id="a" x1="-1.77" x2="78.23" y1="9.141" y2="9.141" gradientUnits="userSpaceOnUse"><stop stop-color="#FA6E00"/><stop offset="1" stop-color="#E60026"/></linearGradient></defs></svg>